<svg xmlns="http://www.w3.org/2000/svg" width="16" height="16" viewBox="0 0 16 16">
    <path fill="#FFF" fill-rule="evenodd" d="M8 16A8 8 0 1 1 8 0a8 8 0 0 1 0 16zm.47-3.105V11.87c.793-.07 1.397-.307 1.814-.713.417-.406.625-.914.625-1.526 0-.432-.1-.808-.301-1.129-.201-.32-.427-.536-.678-.647-.25-.11-.737-.269-1.46-.475V5.45c.509.044.86.35 1.05.917l1.124-.237c-.303-.985-1.027-1.55-2.174-1.698v-.797h-.747v.797c-1.567.192-2.35.909-2.35 2.151 0 .48.147.892.442 1.236.295.345.931.63 1.908.855v2.184c-.748-.059-1.23-.477-1.443-1.255l-1.19.276c.384 1.214 1.262 1.877 2.633 1.991v1.024h.747zM7.723 5.45V7.31c-.752-.1-1.128-.408-1.128-.924 0-.306.108-.537.324-.694.215-.157.484-.237.804-.24zm.747 5.41V8.74c.815.151 1.222.496 1.222 1.034 0 .321-.117.581-.35.78-.235.2-.525.3-.872.304z" opacity=".9"/>
</svg>
